<?xml version="1.0" encoding="UTF-8"?>
<svg id="Layer_1" data-name="Layer 1" xmlns="http://www.w3.org/2000/svg" viewBox="0 0 290 290">
  <defs>
    <style>
      .nuggets-cls1 {
        fill: #082041;
      }

      .nuggets-cls1, .nuggets-cls2, .nuggets-cls3, .nuggets-cls4 {
        fill-rule: evenodd;
      }

      .nuggets-cls2 {
        fill: #911e30;
      }

      .nuggets-cls3 {
        fill: #fff;
      }

      .nuggets-cls4 {
        fill: #ffcc04;
      }
    </style>
  </defs>
  <path class="nuggets-cls4" d="M145,0c80.08,0,145,64.92,145,145s-64.92,145-145,145S0,225.08,0,145,64.92,0,145,0h0Z"/>
  <path class="nuggets-cls2" d="M145,7.55c75.91,0,137.45,61.54,137.45,137.45s-61.54,137.45-137.45,137.45S7.55,220.91,7.55,145,69.09,7.55,145,7.55h0Z"/>
  <path class="nuggets-cls1" d="M145,14.8c71.91,0,130.2,58.29,130.2,130.2s-58.29,130.2-130.2,130.2S14.8,216.91,14.8,145,73.09,14.8,145,14.8h0Z"/>
  <path class="nuggets-cls2" d="M145,49.77c52.6,0,95.23,42.64,95.23,95.23s-42.64,95.23-95.23,95.23-95.23-42.64-95.23-95.23S92.4,49.77,145,49.77h0Z"/>
  <path class="nuggets-cls1" d="M145,56.71c48.76,0,88.29,39.53,88.29,88.29s-39.53,88.29-88.29,88.29-88.29-39.53-88.29-88.29S96.24,56.71,145,56.71h0Z"/>
  <path class="nuggets-cls4" d="M68.1,164.98c-5.47-16.02-.82-43.63,11.33-62.47,11.27-17.29,33.76-33.25,51.57-35.4-34.89,20.07-59.29,58.89-62.89,97.87h0Z"/>
  <polygon class="nuggets-cls3" points="145.06 126.53 127.24 104.02 112.93 107.62 145.06 68.3 150.41 80.83 154.19 75.91 180.81 108.47 162.78 103.86 145.06 126.53 145.06 126.53"/>
  <polygon class="nuggets-cls4" points="145.06 126.53 162.78 103.86 180.81 108.47 154.19 75.91 154.21 89.76 145.06 68.3 145.06 126.53 145.06 126.53"/>
  <path class="nuggets-cls3" d="M118.89,193.22c.6-6.25,3.35-11.88,7.5-16.12,2.44,2.32,5.06,4.09,7.79,5.34,2.85,1.3,5.8,2.05,8.76,2.29v8.5h-24.05Zm45.79-16.08c4.13,4.24,6.87,9.85,7.47,16.08h-24.05v-8.55c2.78-.26,5.47-.88,8.08-1.96,2.99-1.24,5.83-3.06,8.5-5.58h0Zm-16.58-7.96c4.66,.45,8.96,2.09,12.61,4.61-2.08,1.87-4.24,3.24-6.49,4.17-1.95,.8-3.99,1.3-6.12,1.53v-10.31h0Zm-17.75,4.59c3.64-2.51,7.94-4.14,12.58-4.59v10.37c-2.25-.22-4.48-.81-6.62-1.78-2.07-.95-4.08-2.27-5.97-3.99h0Z"/>
  <path class="nuggets-cls4" d="M142.93,222.44c-4.67-.45-8.99-2.1-12.65-4.64,1.91-1.75,3.94-3.09,6.04-4.05,2.14-.98,4.36-1.56,6.62-1.78v10.48h0Zm-16.6-7.99c-4.12-4.24-6.85-9.84-7.44-16.06h24.05v8.39c-2.96,.24-5.91,.98-8.76,2.29-2.75,1.26-5.39,3.04-7.85,5.39h0Zm45.82-16.06c-.6,6.21-3.31,11.79-7.41,16.03-2.69-2.55-5.55-4.39-8.56-5.63-2.6-1.08-5.29-1.7-8.08-1.96v-8.44h24.05Zm-11.36,19.39c-3.66,2.55-8,4.21-12.68,4.66v-10.42c2.13,.23,4.17,.72,6.12,1.53,2.28,.94,4.47,2.33,6.57,4.23h0Z"/>
  <path class="nuggets-cls4" d="M216.22,182.85c.78,3.58-3.2,10.17-7.17,11.2l-4.51-5.34-.43-.66L95.3,119.71l-1.02,1.61-11.19-6.31-6.94-6.9-1.99-1.25,6.46-9.92,1.84,1.23,9.16,3.25,10.46,7.58-1.15,1.8,107.71,70.12,.7,.06,6.87,1.87h0Z"/>
  <polygon class="nuggets-cls1" points="149.4 153.69 145.48 151.22 154.41 145.61 158.52 148.29 149.4 153.69 149.4 153.69"/>
  <path class="nuggets-cls4" d="M222.85,164.98c5.47-16.02,.82-43.63-11.33-62.47-11.27-17.29-33.77-33.25-51.57-35.4,34.89,20.07,59.29,58.89,62.9,97.87h0Z"/>
  <path class="nuggets-cls4" d="M74.73,182.85c-.78,3.58,3.2,10.17,7.17,11.2l4.51-5.34,.43-.66,108.81-68.34,1.02,1.61,11.19-6.31,6.94-6.9,1.99-1.25-6.46-9.92-1.84,1.23-9.16,3.25-10.46,7.58,1.15,1.8-107.71,70.12-.7,.06-6.87,1.87h0Z"/>
  <polygon class="nuggets-cls4" points="21.78 140.77 28.15 136.95 20.4 124.6 33.2 134.98 40.19 131.71 36.54 137.95 45.41 146.31 33.88 142.04 30.14 148.49 29.61 141.33 21.78 140.77 21.78 140.77"/>
  <polygon class="nuggets-cls4" points="268.22 140.77 261.85 136.95 269.61 124.6 256.8 134.98 249.81 131.71 253.46 137.95 244.59 146.31 256.12 142.04 259.86 148.49 260.39 141.33 268.22 140.77 268.22 140.77"/>
  <path class="nuggets-cls3" d="M166.16,44.67h0l-6.96-1.2,.65-21.48,4.77,.82-.3,11.26c.12,.1,.26,.12,.43,.08l3.39-10.73,5.17,.89-7.15,20.36h0Zm-48.46,1.72l5.3-1.1-1.46-7.02,.41-.21,4.11,6.59,4.92-1.02-4.34-20.83-5.33,1.11,1.51,7.23-.42,.17-3.95-6.8-6.26,1.3,.75,3.62,1.18-.25,3.58,17.21h0Zm106.16,32.56l3.34,4.24,5.91-4.66c.28,.35,.56,.71,.84,1.05l-4.46,6.52,3.26,4.14,4.68-7.34c.54,.35,1.08,.62,1.63,.81l9.1-7.13c-.28-.18-.56-.51-.87-.91-.53-1.65-1.43-3.18-2.48-4.52l-4.22-5.36-16.72,13.17h0Zm14.16-1.27c-1.05,.33-2.02-.73-1.47-1.86l3.82-3.01c1.23-.28,2.04,.91,1.47,1.86l-3.82,3.01h0Zm-179.13,5.79l-10.24-7.38c-.61-1.11,.31-2.21,1.38-1.92l10.24,7.38c.61,.92-.15,2.15-1.38,1.92h0Zm-8.69-15.84c-.13,.42-.25,.55-.5,.9-1.53,.98-2.82,2.33-3.86,3.77l-3.99,5.54,17.27,12.43,3.43-4.76c1.81-2.51,2.84-4.77,2.92-6.89l-15.26-10.99h0Zm150.98-12.97l2.84-4.66,3.54,2.15,2.65-2.76-4.25-2.58,2.47-4.05,5.41,3.29,1.89-3.11-11.44-6.96-1.89,3.11,1.03,.63-9.17,15.07,10.41,6.33,1.92-3.16-5.41-3.29h0Zm-113.43,1.58l-3.01-4.55,3.45-2.29-1.37-3.57-4.15,2.75-2.62-3.96,5.28-3.5-2.01-3.03-11.16,7.39,2.01,3.03,1.01-.67,9.74,14.71,10.16-6.73-2.05-3.09-5.28,3.5h0Z"/>
  <path class="nuggets-cls3" d="M187.49,260.52l11.35-4.68-1.41-3.42-5.9,2.43-2.08-5.04,3.86-1.59-.65-3.77-4.63,1.91-1.81-4.39,5.9-2.43-1.39-3.36-12.47,5.14,1.39,3.36,1.12-.46,6.72,16.3h0Zm21.11-31.15l3.04-2.64,11.5,13.27,4.28-3.71-11.5-13.27,3.04-2.64-2.42-2.8-10.37,8.99,2.42,2.8h0Zm-170.09-22.25l3.07,4.51,5.93-4.03,.35,.3-4.5,6.33,2.85,4.18,17.58-11.96-3.08-4.54-6.11,4.15-.32-.33,4.76-6.26-3.62-5.33-3.06,2.08,.68,1.01-14.52,9.88h0Zm206.81,2.27l-2.6-1.62-2.93,4.7,4.63,2.89c1.87-.89,3.81-2.93,5-4.84,1.19-1.91,2.1-4.32,2.07-6.48l-7.99-4.99c-.72-.45-2.26-.47-3.33,1.25l-2.64,4.23-3.7-2.31c-.68-1.08,.16-2.18,1.26-1.97l2.31,1.44,2.9-4.64-5.39-3.37c-.08,.33-.27,.7-.55,1.12-1.46,1.01-2.74,2.5-3.68,4-1.19,1.91-2.2,4.49-2.17,6.57l6.99,4.37c1.32,.82,2.62,.57,3.78-1.27l2.57-4.12,4.77,2.98c.66,.89-.04,2.2-1.29,2.07h0Zm-95.13,54.61l-.71-13.6c.49-1.17,2.05-1.15,2.5-.13l.14,2.78,5.46-.29-.33-6.35c-.4,.15-.83,.18-1.26,.2-1.7-.61-3.76-.78-5.53-.69-2.25,.12-4.98,.78-6.66,1.99l.98,18.77c1.8,1.02,4.59,1.44,6.83,1.32,2.25-.12,4.91-.76,6.66-2.03l-.61-11.57-6.38,.33-.7,3.35,1.8,.22,.29,5.55c-.35,1.05-1.89,1.23-2.5,.13h0Zm-40.7-4.97l3.84-13.07c.85-.94,2.31-.41,2.4,.71l-.79,2.67,5.25,1.54,1.79-6.1c-.43,.01-.84-.11-1.25-.23-1.41-1.14-3.29-1.98-4.99-2.48-2.16-.64-4.96-.92-6.95-.33l-5.3,18.03c1.36,1.56,3.85,2.88,6.01,3.52,2.16,.63,4.89,.91,6.95,.29l3.27-11.12-6.12-1.8-1.77,2.93,1.62,.81-1.57,5.34c-.68,.88-2.19,.54-2.4-.71h0Zm-36.68-18.99l10.93-14.05-5.21-4.06-2.27,2.92,.86,.67-10.04,12.91c.69,1.94,2.51,4.08,4.29,5.46,1.77,1.38,4.2,2.63,6.35,2.81l12.31-15.82-4.3-3.35-10.93,14.05c-.95,.57-2.23-.3-1.97-1.53h0Z"/>
</svg>