<?xml version="1.0" encoding="UTF-8"?>
<svg id="Layer_1" data-name="Layer 1" xmlns="http://www.w3.org/2000/svg" xmlns:xlink="http://www.w3.org/1999/xlink" viewBox="0 0 501 501">
  <defs>
    <style>
      .pistons-cls1 {
        mask: url(#mask);
      }

      .pistons-cls2 {
        fill: #006ab6;
      }

      .pistons-cls3 {
        fill: #ed174b;
      }

      .pistons-cls4 {
        fill: #fefefe;
      }

      .pistons-cls5 {
        fill: #b4b2b2;
        stroke: #fff;
      }
    </style>
    <mask id="mask" x="-9.92" y="-9.92" width="520.83" height="520.83" maskUnits="userSpaceOnUse"/>
  </defs>
  <g id="Page-1">
    <g id="DET">
      <g id="Page-1-2" data-name="Page-1">
        <g id="Group-3">
          <g class="pistons-cls1">
            <path id="Fill-1" class="pistons-cls5" d="M500.5,250.5c0,138.07-111.93,250-250,250S.5,388.57,.5,250.5,112.42,.5,250.5,.5s250,111.93,250,250"/>
          </g>
        </g>
        <path id="Fill-4" class="pistons-cls2" d="M493.32,250.5c0,134.11-108.72,242.83-242.82,242.83S7.67,384.61,7.67,250.5,116.39,7.67,250.5,7.67s242.82,108.71,242.82,242.83"/>
        <path id="Fill-6" class="pistons-cls3" d="M457.57,250.5c0,114.35-92.71,207.06-207.07,207.06S43.43,364.85,43.43,250.5,136.13,43.44,250.5,43.44s207.07,92.7,207.07,207.06"/>
        <path id="Fill-8" class="pistons-cls4" d="M250.5,445.68c-82.7,0-153.51-51.72-181.89-124.49,34.7,47.49,103.21,79.9,181.89,79.9s147.18-32.4,181.89-79.9c-28.38,72.77-99.19,124.49-181.89,124.49m0-390.37c82.7,0,153.52,51.73,181.89,124.51-34.71-47.49-103.2-79.9-181.89-79.9s-147.18,32.41-181.89,79.9c28.38-72.78,99.18-124.51,181.89-124.51M55.46,256.59h38.11v-12.18H55.46c.15-4.61,.39-9.2,.85-13.72,13.51-67.99,95.42-120.46,194.19-120.46s180.68,52.47,194.19,120.46c.46,4.52,.71,9.1,.85,13.71h-38.11v12.18h38.11c-.14,4.61-.39,9.2-.85,13.72-13.51,67.99-95.43,120.45-194.19,120.45s-180.68-52.46-194.19-120.45c-.46-4.53-.7-9.11-.85-13.72M250.5,43.43c-114.17,0-207.06,92.89-207.06,207.07s92.89,207.06,207.06,207.06,207.07-92.89,207.07-207.06S364.67,43.43,250.5,43.43"/>
        <polygon id="Fill-10" class="pistons-cls4" points="163 321.69 177.65 321.69 177.65 255.91 163.01 255.91 163 321.69"/>
        <path id="Fill-12" class="pistons-cls4" d="M219.12,255.94h-.44c-4.11-.03-19.07-.09-21.94-.03l-.74,.04c-4.42,0-7.23,2.1-7.92,5.91-.12,.62-.13,1.09-.12,1.09-.02,.14-1.02,12.46,.2,15.94,1.96,5.66,6.53,7.76,10.73,9.06,.14,.04,.28,.08,.44,.13,.27,.07,.55,.14,.81,.26,.46,.19,.79,.44,.98,.75l.06,23.69-12.09,.04,.05,8.77,15.9,.02h.01c5.52-.24,9.32-2.66,10.73-6.83,.4-3.21,.45-25.27,.14-29.88-.1-1.74-.9-3.14-2.5-4.4-.62-.48-1.4-.98-2.38-1.53-.87-.45-1.81-.92-2.71-1.33-3.43-1.68-7.33-3.58-7.33-7.96v-3.74h11.51c2.36,0,4.24-1.16,5.46-3.33,.93-1.67,1.18-3.33,1.17-3.43,.1-1.09,.05-2.1,0-2.77l-.03-.44Z"/>
        <path id="Fill-14" class="pistons-cls4" d="M281.23,270.72c.07-1.73,.21-3.04,.45-4.06l.26-.26c.66-.1,1.29-.15,2.07-.15h.3c4.96,.06,5.1,1.55,5.1,10.54v27.47c0,.82,0,1.59-.05,2.41-.04,.79-.13,1.53-.27,2.22l-.27,.26c-.87,.13-1.71,.19-2.61,.19-1.82,0-3.09-.4-3.88-1.2-1.17-1.2-1.2-3.21-1.13-5.53v-27.74s-.03-3.08,.03-4.15m4.83-14.83c-3.3,0-6.73,.11-9.5,.89-7.17,1.73-10.66,6.52-10.66,14.65v39.13c0,10.03,7.17,12.08,17.94,12.08,13.05,0,20.53-4.61,20.53-12.64l.02-40.79c0-13.33-8.49-13.33-18.32-13.33"/>
        <path id="Fill-16" class="pistons-cls4" d="M338.32,283.86c-6.99-25.33-18.22-28.16-22.87-28.16-1.21,0-1.94,.19-1.96,.2l-.35,.09v65.73s14.82,.02,14.82,.02v-26.44l10.33,26.44h15.07v-65.78h-15.04v27.89Z"/>
        <path id="Fill-18" class="pistons-cls4" d="M139.26,285.09h-8.24s0-19.09,0-19.09c0,0,4.48-.09,5.15,0,1.63,.21,3.13,.84,3.13,2.79,0,.64-.04,16.3-.04,16.3m5.92-29.21l-36.96,.05h-.45s-.02,.45-.02,.45c0,.08-.32,7.83,8.33,9.63v55.69h15.16v-27.99h12.75c6.73,0,10.59-4.43,10.59-12.15l.04-2.35c0-18.64-.76-22.37-9.43-23.33"/>
        <path id="Fill-20" class="pistons-cls4" d="M261.35,255.99h-34.28v10.34h9.77v55.47h15.07s.01-55.54,.01-55.54c.19,.01,.37,.02,.55,.02,2.69,0,4.84-.82,6.37-2.45,2.73-2.87,2.54-7.21,2.54-7.4l-.03-.45Z"/>
        <path id="Fill-22" class="pistons-cls4" d="M393.28,255.94h-.44c-4.12-.03-19.07-.09-21.94-.03l-.74,.04c-4.42,0-7.23,2.1-7.92,5.91-.12,.62-.12,1.09-.12,1.09-.02,.14-1.02,12.46,.2,15.94,1.96,5.66,6.53,7.76,10.73,9.06,.15,.04,.29,.08,.44,.13,.27,.07,.55,.14,.81,.26,.46,.19,.79,.44,.98,.75l.06,23.69-12.09,.04,.04,8.77,15.9,.02h.02c5.51-.24,9.32-2.66,10.73-6.83,.4-3.21,.45-25.27,.14-29.88-.11-1.74-.9-3.14-2.51-4.4-.62-.48-1.39-.98-2.38-1.53-.87-.45-1.81-.92-2.71-1.33-3.44-1.68-7.33-3.58-7.33-7.96v-3.74h11.5c2.36,0,4.24-1.16,5.46-3.33,.93-1.67,1.18-3.33,1.18-3.43,.1-1.09,.05-2.1,0-2.77l-.03-.44Z"/>
        <path id="Fill-24" class="pistons-cls4" d="M258.82,188.47h2.49s.4,0,.4,0c3.83,.06,5.26,.08,5.16,6.83,.01,5.39,0,5.72-.11,8.38v.51c0,.78-.33,1.63-.82,2.14-.35,.35-.76,.53-1.22,.53h-5.9v-18.39Zm-.04,26.85h2.54c2.45,.05,6.55,.8,6.55,5.2,0,2.1,.19,8.68,.26,11.15l.03,.99c.02,.36,.18,3.58,.33,4.19,1.05,3.83,4.03,6.13,8.68,6.63h4.29v-23.41c0-2.01-1.09-4.82-2.67-6.83l-.31-.43c2.35-2.64,3.27-5.3,3.27-9.36l.02-2.29c0-18.19-.72-21.83-9.17-22.77h-28.46v64.2h14.64v-27.27Z"/>
        <polygon id="Fill-26" class="pistons-cls4" points="349.65 178.38 335.38 178.38 335.33 242.55 349.65 242.56 349.65 178.38"/>
        <path id="Fill-28" class="pistons-cls4" d="M212.57,242.65l14.69-.02,.02-54.23c.18,0,.36,.01,.54,.01,2.64,0,4.73-.8,6.23-2.39,2.66-2.8,2.47-7.03,2.46-7.2l-.02-.43h-33.45v10.08h9.53v54.19Z"/>
        <path id="Fill-30" class="pistons-cls4" d="M366.7,242.65l14.7-.02v-54.23c.18,0,.37,.01,.54,.01,2.65,0,4.74-.81,6.25-2.39,2.66-2.81,2.47-7.03,2.46-7.2l-.03-.43h-33.46v10.08h9.53v54.19Z"/>
        <polygon id="Fill-32" class="pistons-cls4" points="195.34 232.27 179.96 232.27 179.96 216.67 190.51 216.67 190.51 202.69 179.96 202.69 179.96 188.24 195.34 188.24 195.34 178.39 165.68 178.39 165.63 242.55 195.34 242.55 195.34 232.27"/>
        <path id="Fill-34" class="pistons-cls4" d="M141.94,232.27h-8.13v-43.82c5.04-.21,6.1,.23,6.19,.28,1.9,.74,1.86,4.26,1.86,4.35,.53,5.07,.14,35.15,.08,39.19m5.07-53.88h-36.59l-.05,.39c-.03,.16-.46,3.84,1.91,6.65,1.51,1.79,3.8,2.79,6.85,2.99v54.06h27.25c6.21,0,10.39-5.28,10.39-13.14v-29.78c.02-16.43,.03-20.85-9.76-21.17"/>
        <path id="Fill-36" class="pistons-cls4" d="M304.55,192.9c.07-1.7,.22-2.97,.45-3.98l.27-.24c.64-.1,1.28-.14,2.04-.14h.29c4.93,.06,5.07,1.53,5.07,10.31v26.88c0,.81,0,1.56-.05,2.36-.04,.77-.13,1.49-.27,2.17l-.27,.26c-.86,.13-1.69,.19-2.59,.19-1.8,0-3.06-.39-3.84-1.18-1.16-1.18-1.2-3.14-1.12-5.41v-27.15s-.03-3.02,.02-4.06m4.8-14.52c-3.27,0-6.68,.1-9.43,.87-7.12,1.69-10.58,6.38-10.58,14.33v38.3c0,9.81,7.12,11.82,17.8,11.82,12.94,0,20.37-4.51,20.37-12.36l.02-39.92c0-13.04-8.43-13.04-18.18-13.04"/>
      </g>
    </g>
  </g>
</svg>