<?xml version="1.0" encoding="utf-8"?>
<!-- Generator: Adobe Illustrator 26.5.0, SVG Export Plug-In . SVG Version: 6.00 Build 0)  -->
<svg version="1.1" id="Layer_1" xmlns="http://www.w3.org/2000/svg" xmlns:xlink="http://www.w3.org/1999/xlink" x="0px" y="0px"
	 viewBox="0 0 24 24" style="enable-background:new 0 0 24 24;" xml:space="preserve">
<style type="text/css">
	.st0{fill:#425563;}
</style>
<path class="st0" d="M15.7,16.4H8.2c-0.3,0-0.5-0.2-0.5-0.5s0.2-0.5,0.5-0.5h7.4c0.3,0,0.5,0.2,0.5,0.5S16,16.4,15.7,16.4z"/>
<path class="st0" d="M15.7,12.4H8.2c-0.3,0-0.5-0.2-0.5-0.5s0.2-0.5,0.5-0.5h7.4c0.3,0,0.5,0.2,0.5,0.5S16,12.4,15.7,12.4z"/>
<path class="st0" d="M15.7,8.5H8.2C8,8.5,7.7,8.2,7.7,8S8,7.5,8.2,7.5h7.4c0.3,0,0.5,0.2,0.5,0.5S16,8.5,15.7,8.5z"/>
</svg>
