<svg width="25" height="25" viewBox="0 0 25 25" fill="none" xmlns="http://www.w3.org/2000/svg">
<path fill-rule="evenodd" clip-rule="evenodd" d="M12.5 24.207C19.1274 24.207 24.5 18.8344 24.5 12.207C24.5 5.57961 19.1274 0.207031 12.5 0.207031C5.87258 0.207031 0.5 5.57961 0.5 12.207C0.5 18.8344 5.87258 24.207 12.5 24.207Z" fill="#BCB7B2"/>
<path fill-rule="evenodd" clip-rule="evenodd" d="M8.79289 8.49992C8.40237 8.89045 8.40237 9.52361 8.79289 9.91414L11.2679 12.3892L8.79304 14.864C8.40252 15.2546 8.40252 15.8877 8.79304 16.2783C9.18356 16.6688 9.81673 16.6688 10.2073 16.2783L12.6821 13.8034L15.1569 16.2781C15.5474 16.6686 16.1805 16.6686 16.5711 16.2781C16.9616 15.8876 16.9616 15.2544 16.5711 14.8639L14.0963 12.3892L16.5712 9.91429C16.9617 9.52376 16.9617 8.8906 16.5712 8.50008C16.1807 8.10955 15.5475 8.10955 15.157 8.50008L12.6821 10.9749L10.2071 8.49992C9.81658 8.1094 9.18342 8.1094 8.79289 8.49992Z" fill="white"/>
</svg>
